PathFileType	4	(X/Y/Z)	2014001\dynamic\2014001_C3_01.trc
DataRate	CameraRate	NumFrames	NumMarkers	Units	OrigDataRate	OrigDataStartFrame	OrigNumFrames
100.000000	100.000000	4	52	mm	100.000000	168	192
Frame#	Time	L_IAS			L_IPS			R_IPS			R_IAS			L_FTC			L_FLE			L_FME			L_FAX			L_TTC			L_FAL			L_TAM			L_FCC			L_FM1			L_FM2			L_FM5			R_FTC			R_FLE			R_FME			R_FAX			R_TTC			R_FAL			R_TAM			R_FCC			R_FM1			R_FM2			R_FM5			CV7			TV10			SXS			SJN			L_SIA			L_SRS			L_SAA			L_SAE			L_HLE			L_HME			L_UOA			L_RSP			L_UHE			L_HM2			L_HM5			R_SIA			R_SRS			R_SAA			R_SAE			R_HLE			R_HME			R_UOA			R_RSP			R_UHE			R_HM2			R_HM5			
		X1	Y1	Z1	X2	Y2	Z2	X3	Y3	Z3	X4	Y4	Z4	X5	Y5	Z5	X6	Y6	Z6	X7	Y7	Z7	X8	Y8	Z8	X9	Y9	Z9	X10	Y10	Z10	X11	Y11	Z11	X12	Y12	Z12	X13	Y13	Z13	X14	Y14	Z14	X15	Y15	Z15	X16	Y16	Z16	X17	Y17	Z17	X18	Y18	Z18	X19	Y19	Z19	X20	Y20	Z20	X21	Y21	Z21	X22	Y22	Z22	X23	Y23	Z23	X24	Y24	Z24	X25	Y25	Z25	X26	Y26	Z26	X27	Y27	Z27	X28	Y28	Z28	X29	Y29	Z29	X30	Y30	Z30	X31	Y31	Z31	X32	Y32	Z32	X33	Y33	Z33	X34	Y34	Z34	X35	Y35	Z35	X36	Y36	Z36	X37	Y37	Z37	X38	Y38	Z38	X39	Y39	Z39	X40	Y40	Z40	X41	Y41	Z41	X42	Y42	Z42	X43	Y43	Z43	X44	Y44	Z44	X45	Y45	Z45	X46	Y46	Z46	X47	Y47	Z47	X48	Y48	Z48	X49	Y49	Z49	X50	Y50	Z50	X51	Y51	Z51	X52	Y52	Z52	

169	1.68	390.4768066406252	874.6940307617192	1658.466918945313	314.6836242675782	917.7929687500005	1482.204345703125	224.2438507080079	914.634155273438	1479.65673828125	150.2735137939454	888.029174804688	1658.914550781251	442.535827636719	790.6677856445317	1577.617431640626	387.916442871094	436.6177062988284	1546.634765625001	274.3910217285157	433.0648193359377	1568.217895507813	389.0284729003909	378.0960083007814	1519.210205078125	339.8183593750001	352.7778930664064	1575.217529296876	326.8257751464845	69.0444030761719	1438.272338867188	240.3814697265626	80.3838806152344	1462.090698242188	281.320281982422	35.6015968322754	1391.745361328125	258.4701538085939	27.17943382263185	1571.857299804688	320.7769165039064	35.59595870971681	1580.423706054688	365.9716796875001	24.02616500854494	1523.593505859375	88.50393676757815	789.7722167968755	1574.181762695313	88.49304199218753	465.449645996094	1713.843261718751	205.0974731445314	448.7883300781252	1747.234008789063	84.33364868164065	405.7322998046877	1694.764404296876	122.3673400878907	392.5271911621096	1766.584106445313	117.0642623901368	93.30616760253909	1641.710815429688	191.9706268310547	103.1930313110352	1693.833740234376	179.0758819580079	50.43859863281253	1608.194702148438	149.738998413086	44.66676712036134	1790.979614257813	95.15385437011722	57.58073425292972	1777.082153320313	67.56806182861331	41.74678421020509	1720.511718750001	262.5554809570314	1383.20556640625	1516.520629882813	280.1678771972657	1151.217163085938	1453.055053710938	265.7881164550782	1157.562377929688	1689.894897460938	254.3637847900392	1316.587036132813	1643.351562500001	383.0850830078126	1198.698608398438	1466.37646484375	363.1803283691407	1327.224853515625	1486.51025390625	460.4460144042971	1333.34033203125	1580.258544921876	432.521423339844	1342.396850585938	1614.440917968751	530.9566040039065	1079.1201171875	1695.716918945313	471.9757385253909	1026.275512695313	1661.860107421876	521.4752197265627	1029.255004882813	1675.682739257813	439.240661621094	927.9836425781255	1876.692260742188	515.0969848632815	905.5111694335942	1864.678588867188	428.4682617187502	881.7702026367192	1949.983032226563	511.9046325683596	840.073852539063	1906.971313476563	175.9022369384766	1188.706176757813	1432.790161132813	186.7759704589844	1311.941040039063	1464.662353515625	76.17933654785159	1302.772583007813	1525.684814453125	78.46712493896487	1306.36865234375	1576.387207031251	28.3965358734131	1011.106628417969	1486.50048828125	108.5038681030274	998.4766235351567	1473.085083007813	64.24137115478518	993.6085815429692	1460.52197265625	31.05585098266603	793.7601928710942	1559.295654296876	-13.82658863067628	798.592163085938	1489.117797851563	5.681289672851564	701.6320800781252	1569.724609375001	-12.19693088531495	721.7246093750002	1470.273315429688	
170	1.69	390.7436523437502	873.719604492188	1666.544799804688	313.9063720703126	916.641235351563	1490.784301757813	223.5432281494142	913.3579711914067	1488.491088867188	150.4457244873047	886.9027709960942	1668.139038085938	442.6253051757815	790.0791015625005	1584.870605468751	387.9409179687502	436.5820922851565	1549.084472656251	274.6277465820314	432.5444030761721	1570.734863281251	389.0448303222659	378.3382568359376	1521.026977539063	340.1401367187501	352.4061889648439	1576.992797851563	326.7629394531251	69.52889251708987	1438.343139648438	240.4066467285157	80.74214935302737	1462.432983398438	281.1350097656251	36.23984146118165	1391.7880859375	258.5902404785157	27.20473289489748	1571.835693359376	320.931610107422	35.54040908813478	1580.434204101563	366.008514404297	23.90589714050294	1523.516723632813	88.51220703125003	788.3163452148442	1583.708740234376	89.97785949707034	464.2185058593752	1725.591430664063	206.8510131835939	448.4095764160159	1758.200073242188	85.63768005371097	403.397644042969	1709.268432617188	124.5724105834962	393.4765319824221	1781.133789062501	116.8443984985352	88.71474456787112	1674.206298828126	192.3196868896486	101.6287460327149	1724.916137695313	178.394760131836	43.71312713623048	1642.794067382813	150.9788513183594	49.02502441406253	1825.760253906251	96.28128814697271	61.15740585327151	1811.620971679688	68.06924438476565	42.05061340332033	1756.431274414063	262.4010620117189	1382.194458007813	1526.572631835938	279.9114074707032	1150.588134765625	1462.264282226563	265.3937988281251	1155.9912109375	1699.016113281251	253.8142547607423	1315.159301757813	1653.168823242188	383.1512145996095	1198.16845703125	1476.10595703125	363.187469482422	1326.59912109375	1496.712158203125	460.0037841796877	1332.642211914063	1590.888061523438	431.841247558594	1341.48583984375	1624.879638671876	530.8484497070315	1079.64990234375	1708.585327148438	471.9153442382815	1026.282470703125	1675.423583984376	521.553894042969	1029.32763671875	1689.489990234376	436.9700927734377	933.166625976563	1892.271850585938	512.7000122070315	909.8220214843755	1881.303344726563	425.3377380371096	889.0903320312505	1966.628906250001	508.5405578613284	845.3739624023442	1925.202148437501	176.1753540039063	1188.11376953125	1441.740112304688	186.8888397216797	1311.292724609375	1474.100463867188	76.10688781738284	1301.69189453125	1534.762817382813	78.21464538574222	1305.059814453125	1585.486694335938	28.74115562438966	1010.472839355469	1493.0771484375	108.9990844726563	997.9680786132817	1479.83203125	64.75334167480472	993.0426635742192	1467.236328125	31.19659423828126	792.7971801757817	1565.199096679688	-13.42846679687501	797.8543090820317	1494.834106445313	5.359093189239504	700.918640136719	1575.517578125001	-12.07195854187012	721.033630371094	1476.0224609375	
171	1.7	390.948425292969	872.612182617188	1674.738281250001	313.078094482422	915.3640747070317	1499.444702148438	222.801483154297	911.9494018554692	1497.437866210938	150.5517578125001	885.5915527343755	1677.438232421876	442.6743774414065	789.381713867188	1592.227783203126	387.9426574707034	436.5142822265627	1551.630737304688	274.8130493164064	431.966979980469	1573.280761718751	389.0179443359377	378.546112060547	1522.92626953125	340.4135742187501	351.9851684570314	1578.844726562501	326.6776428222657	70.00743103027347	1438.431396484375	240.4053649902345	81.09022521972659	1462.799926757813	280.9346618652345	36.89326477050783	1391.846069335938	258.6956481933595	27.20453453063966	1571.817260742188	321.0830688476564	35.47418212890626	1580.444702148438	366.0233764648439	23.78066444396973	1523.442016601563	88.48665618896487	786.676635742188	1593.224609375001	91.46231842041018	462.6498718261721	1736.777587890626	208.5810089111329	447.6383361816409	1768.675903320313	86.99002838134768	400.9097900390627	1723.273071289063	126.7185134887696	394.2612304687502	1795.079467773438	116.8584594726563	85.06289672851565	1706.479003906251	192.8201751708986	100.9362487792969	1755.703979492188	177.9719238281251	38.15030670166017	1677.330322265626	152.4596099853516	54.34528732299808	1859.763427734376	97.62626647949224	65.65242004394534	1845.461181640626	68.81624603271487	43.36079788208009	1791.831054687501	262.1573486328126	1381.015014648438	1536.660278320313	279.5593261718751	1149.783813476563	1471.538208007813	264.9709777832032	1154.2177734375	1708.093627929688	253.2421722412111	1313.58837890625	1663.040771484376	383.0718078613282	1197.440063476563	1485.810302734375	363.065887451172	1325.786499023438	1506.898193359375	459.4837036132815	1331.73681640625	1601.456665039063	431.1066589355471	1340.373291015625	1635.266967773438	530.5940551757815	1079.9345703125	1721.160278320313	471.6585083007815	1026.099975585938	1688.685668945313	521.4497070312502	1029.19677734375	1702.950073242188	434.7042236328127	937.9357299804692	1907.330566406251	510.2851867675784	913.781127929688	1897.350219726563	422.2813110351565	895.9074096679692	1982.630371093751	505.2131042480471	850.307495117188	1942.732910156251	176.2933197021485	1187.359741210938	1450.824584960938	186.8702392578126	1310.487060546875	1483.641967773438	75.92118072509768	1300.47802734375	1544.005249023438	77.90014648437503	1303.621704101563	1594.750854492188	29.02836990356447	1009.671691894532	1500.021118164063	109.4466247558594	997.2942504882817	1486.964599609375	65.20671844482425	992.3190307617192	1474.314575195313	31.30481910705568	791.7085571289067	1571.421875000001	-13.04082012176514	796.9553222656255	1500.858642578125	5.17651414871216	699.947204589844	1581.497924804688	-11.90612411499024	720.234069824219	1482.008422851563	
172	1.71	391.0891723632815	871.3613281250005	1683.050048828126	312.1966552734376	913.979858398438	1508.200073242188	222.0126190185548	910.420532226563	1506.508056640625	150.6026458740235	884.0867309570317	1686.831420898438	442.6887207031252	788.5823364257817	1599.683959960938	387.9312438964846	436.4108886718752	1554.287719726563	274.961883544922	431.3285217285159	1575.921020507813	388.9562988281252	378.7216796875001	1524.926879882813	340.6527099609376	351.5111083984376	1580.792114257813	326.5730590820314	70.48658752441409	1438.54052734375	240.3841400146486	81.43548583984378	1463.19482421875	280.721893310547	37.57383346557619	1391.921142578125	258.7875366210939	27.1841449737549	1571.798828125001	321.229217529297	35.39776611328126	1580.449951171876	366.0155029296876	23.64859771728516	1523.368774414063	88.418327331543	784.861450195313	1602.764160156251	92.92212677001956	460.7815246582034	1747.460083007813	210.2804412841798	446.5118103027346	1778.699829101563	88.36729431152347	398.3093566894534	1736.800537109376	128.7682647705079	394.9101257324221	1808.450073242188	117.1330184936524	82.34561157226565	1738.349121093751	193.4837493896486	101.0883712768555	1786.055053710938	177.8587341308594	33.75227355957033	1711.602050781251	154.1468963623047	60.55010986328128	1892.847167968751	99.16530609130865	70.99378204345706	1878.452392578126	69.80976867675784	45.62356185913087	1826.523071289063	261.8157348632814	1379.674072265625	1546.786010742188	279.1114501953126	1148.804321289063	1480.88720703125	264.5271911621095	1152.253051757813	1717.140380859376	252.6444549560548	1311.878662109375	1672.970092773438	382.844207763672	1196.5126953125	1495.499633789063	362.8100585937501	1324.7890625	1517.065795898438	458.8865356445315	1330.63330078125	1611.954223632813	430.3194580078127	1339.0732421875	1645.594238281251	530.1956787109377	1079.973510742188	1733.444335937501	471.2196960449221	1025.722900390625	1701.642578125001	521.166931152344	1028.859130859375	1716.061279296876	432.4446716308596	942.2592773437505	1921.867553710938	507.8578186035159	917.3589477539067	1912.821411132813	419.3007507324221	902.1804199218755	1997.999145507813	501.9379882812502	854.839721679688	1959.569213867188	176.2640533447266	1186.425537109375	1460.050048828125	186.7193450927735	1309.513916015625	1493.2919921875	75.62426757812503	1299.1181640625	1553.410400390626	77.51765441894534	1302.046020507813	1604.179687500001	29.23710250854494	1008.690246582032	1507.332641601563	109.8128356933594	996.4353637695317	1494.496704101563	65.57583618164065	991.425659179688	1481.752319335938	31.36477851867677	790.4714355468755	1577.968994140626	-12.67514324188233	795.8745117187505	1507.185424804688	5.121137619018556	698.7076416015627	1587.679931640626	-11.68511390686036	719.2974243164065	1488.23095703125	
